<svg xmlns="http://www.w3.org/2000/svg" viewBox="0 0 538.573 579.255">
	<style>
		@media (prefers-color-scheme: dark) {
			#light-part {
				fill: #fefeff;
			}
		}
	</style>

	<path id="#light-part" d="M5.779,0h399.142c4.447,0,7.222,4.817,4.993,8.664l-48.856,84.287c-1.032,1.781-2.934,2.877-4.993,2.877h-185.219c-4.442,0-7.218,4.808-4.998,8.655l162.452,281.482c2.247,3.893,7.884,3.836,10.052-.1l6.056-10.994c2.178-3.954,7.848-3.989,10.074-.062l48.274,85.137c1.012,1.784,1,3.971-.03,5.745l-64.305,110.691c-2.228,3.835-7.77,3.828-9.988-.014L.781,8.655C-1.439,4.808,1.337,0,5.779,0Z" fill="#0d0d0f"/>
	<path d="M437.934,0h94.86c4.442,0,7.218,4.808,4.998,8.655l-199.409,345.565c-2.214,3.837-7.747,3.851-9.981.026L192.461,121.509c-2.247-3.847.528-8.681,4.983-8.681h95.644c2.046,0,3.939,1.083,4.975,2.847l30.324,51.599c2.243,3.816,7.769,3.791,9.977-.046L432.932,2.892c1.03-1.789,2.937-2.892,5.002-2.892Z" fill="#636366"/>
</svg>